# xmcd
#
# Track frame offsets:
#	182
#	22495
#	32995
#	41385
#	48867
#	59095
#	75707
#	84292
#	97100
#	110105
#	121955
#	132900
#	144697
#	152680
#	159705
#	175092
#	185315
#	195225
#	207032
#	216972
#	231327
#	240730
#	254535
#	262425
#	272390
#	282067
#	293840
#	303550
#	317120
#	326685
#	338370
#	341537
#
# Disc length: 4677 seconds
#
# Revision: 4
# Processed by: cddbd v1.5.1PL0 Copyright (c) Steve Scherf et al.
# Submitted via: EasyCDDAExtractor 7.5.2.1
#
DISCID=e2124320
DTITLE=Roy Rogers - Happy Trails: The Roy Rogers Collection 1937-90 - Disc 2
DYEAR=1999
DGENRE=Country
TTITLE0=Home On The Range
TTITLE1=My Little Lady
TTITLE2=Cowboy Jubilee
TTITLE3=Smiles Are Made Out Of The Sunshine
TTITLE4=(Oh Why, Oh Why, Did I Ever Leave) Wyoming
TTITLE5=Git Along Little Dogies
TTITLE6=My Heart Went That-A-Way
TTITLE7=Ole Faithful
TTITLE8=Along The Navajo Trail
TTITLE9=Ragtime Cowboy Joe
TTITLE10=Jingle, Jangle, Jingle
TTITLE11=Empty Saddles
TTITLE12=(Down The) Trail To San Antone
TTITLE13=Linda Lou
TTITLE14=Red River Valley
TTITLE15=Little Joe The Wrangler
TTITLE16=Roll On Texas Moon
TTITLE17=The Wheel Of The Wagon Is Broken
TTITLE18=My Adobe Hacienda
TTITLE19=Carry Me Back To The Lone Prairie
TTITLE20=You Can't Take Texas Out Of Me
TTITLE21=Way Out There
TTITLE22=Ride 'Em Cowboy
TTITLE23=Dangerous Ground
TTITLE24=If You're Ever Down In Texas Look Me Up
TTITLE25=Blue Prairie
TTITLE26=I'm Gonna Lasso A Dream
TTITLE27=Twilight On The Trail
TTITLE28=I'm Thinking Tonight Of My Blue Eyes
TTITLE29=Wait'll I Get My Sunshine In The Moonlight
TTITLE30="The Roy Rogers Show" Promotional Announcement
TTITLE31="Roy Rogers Coral" Promotional Announcement
EXTD=The Roy Rogers Collection (1937 - 1990)
EXTT0=
EXTT1=
EXTT2=
EXTT3=
EXTT4=
EXTT5=
EXTT6=
EXTT7=
EXTT8=
EXTT9=
EXTT10=
EXTT11=
EXTT12=
EXTT13=
EXTT14=
EXTT15=
EXTT16=
EXTT17=
EXTT18=
EXTT19=
EXTT20=
EXTT21=
EXTT22=
EXTT23=
EXTT24=
EXTT25=
EXTT26=
EXTT27=
EXTT28=
EXTT29=
EXTT30=
EXTT31=
PLAYORDER=
